PathFileType	4	(X/Y/Z)	D:\TRACE\v60_Jaco2_6-2-23\JustArmDRS_Motion3_1-v60.trc
DataRate	CameraRate	NumFrames	NumMarkers	Units	OrigDataRate	OrigDataStartFrame	OrigNumFrames
100.00	100.00	      17	9	mm	100.00	4045	      8089
Frame#	Time	front left toe			Front right toe			aft left toe			aft right toe			Arm			FL body			FR body			AL Body			AR Body			
		X1	Y1	Z1	X2	Y2	Z2	X3	Y3	Z3	X4	Y4	Z4	X5	Y5	Z5	X6	Y6	Z6	X7	Y7	Z7	X8	Y8	Z8	X9	Y9	Z9	

4045	40.440	-175.45706	24.80095	-233.14714	222.77968	21.69095	-166.89789	-264.61572	11.85763	405.13504	144.33160	8.27126	420.31229	3.71496	1118.13782	-662.93933	-30.25097	591.93707	-344.94684	127.16892	590.58197	-323.33829	-150.31761	571.17285	591.85010	-0.39952	561.44360	611.89471	
4046	40.450	-175.70615	24.95340	-233.12614	222.73825	21.80199	-166.70583	-264.99582	11.74956	405.21829	143.79047	8.03975	420.30905	3.94633	1118.50256	-662.53107	-29.86983	591.73602	-344.40799	127.18549	590.59277	-323.19394	-150.14342	571.05896	591.93433	-0.47734	561.23505	612.03577	
4047	40.460	-176.05194	25.15887	-233.00351	222.63676	21.81838	-166.68303	-265.25687	11.63033	405.30801	143.54407	7.78619	420.19595	4.27140	1118.71655	-662.17145	-29.89312	591.92401	-344.35239	127.20450	590.69244	-323.07291	-150.15416	570.91504	592.04333	-0.51411	561.01819	612.25763	
4048	40.470	-176.22374	25.15100	-232.89827	222.42412	21.82351	-166.63718	-265.01901	11.30676	405.32706	143.13130	7.43257	420.19885	4.53332	1118.78845	-661.93622	-29.92006	592.02472	-344.29510	127.19065	590.77380	-322.91733	-150.04024	570.74310	592.21497	-0.46980	560.77460	612.42212	
4049	40.480	-176.48923	25.28816	-232.78999	221.85861	21.75921	-166.66466	-265.85400	11.13658	405.44980	142.83321	7.11794	420.27185	4.89911	1118.87000	-661.60443	-30.17910	592.27313	-344.47659	127.23032	590.87451	-322.70090	-149.97276	570.56049	592.36353	-0.44894	560.44855	612.59900	
4050	40.490	-176.79669	25.56115	-232.53099	221.34776	21.65781	-166.75826	-266.35153	11.12608	404.96667	142.58560	6.84479	420.52112	5.02834	1119.01379	-661.38440	-29.77941	592.38214	-344.02548	127.26969	591.02100	-322.41998	-150.16106	570.35492	592.58990	-0.49055	560.21265	612.74493	
4051	40.500	-177.19547	25.76681	-232.43066	221.22855	21.69614	-166.81290	-266.40399	10.68919	405.46106	142.46753	6.64824	420.68396	5.24363	1119.20154	-661.07672	-29.60612	592.46106	-343.65125	127.34483	591.10516	-322.20996	-150.29628	570.07562	592.78760	-0.53797	560.01996	612.80499	
4052	40.510	-177.43388	25.92015	-232.30040	221.05521	21.99911	-166.71613	-266.61215	10.31297	405.51675	142.43388	6.55340	420.89160	5.56930	1119.46936	-660.71515	-29.91633	592.98987	-343.77203	127.00069	591.27936	-322.00815	-150.41986	569.98285	593.03015	-0.65555	559.91632	612.89673	
4053	40.520	-177.56577	26.02465	-232.18491	220.40752	22.13422	-166.73488	-266.73105	10.17912	405.51785	141.95941	6.27801	420.94012	6.12225	1119.94385	-660.28839	-29.93040	593.25049	-343.60458	127.00443	591.31439	-321.88571	-150.55316	569.93127	593.15710	-0.68991	559.63776	613.04559	
4054	40.530	-177.84288	26.16603	-232.11861	220.14021	22.32126	-166.42087	-267.05096	9.96465	405.47885	141.38963	6.00688	420.90982	6.43331	1120.41504	-659.69531	-30.08425	593.46832	-343.37421	127.04333	591.35022	-321.71481	-150.77452	569.82513	593.19312	-0.80007	559.37250	613.20978	
4055	40.540	-178.18219	26.42653	-232.04724	219.85373	22.59078	-166.20123	-267.48672	9.83474	405.50479	140.83322	5.81441	420.91574	6.50939	1121.01379	-659.34558	-30.14120	593.64447	-343.28268	127.03162	591.41962	-321.53766	-151.03119	569.66846	593.23431	-0.82553	559.15399	613.34601	
4056	40.550	-178.55104	26.54686	-231.99010	219.70390	22.91496	-165.66391	-268.10791	9.87512	405.67532	140.56848	5.68044	420.97546	6.59890	1121.55261	-658.87805	-30.16582	593.81677	-343.21475	126.99667	591.57672	-321.30005	-151.10660	569.62653	593.29956	-0.90879	558.92120	613.41272	
4057	40.560	-179.10051	26.55508	-231.87775	219.57912	22.91220	-165.64430	-268.59512	9.64610	405.80185	140.46223	5.61008	421.08826	6.72652	1121.79089	-658.46570	-30.26122	594.08014	-343.08554	126.96838	591.74414	-321.14294	-151.11063	569.39685	593.43634	-1.13068	558.66821	613.59589	
4058	40.570	-179.58075	26.97796	-231.59518	219.00616	22.78124	-165.85335	-268.81140	9.39375	405.91946	140.08382	5.33643	421.21384	6.73316	1122.04272	-658.15363	-30.36642	594.32037	-342.87466	126.75977	591.91931	-320.94193	-151.43877	569.07770	593.56500	-1.23229	558.32471	613.86853	
4059	40.580	-179.80466	27.02342	-231.59654	218.45615	22.69767	-165.91188	-269.10254	9.10337	405.98056	139.93280	5.24380	421.33359	6.82238	1122.39490	-657.58228	-30.53495	594.49530	-342.69836	126.61230	592.06946	-320.68979	-151.71112	568.68591	593.64386	-1.48755	558.00922	614.13251	
4060	40.590	-179.97943	27.13590	-231.64420	218.22639	22.81791	-165.79276	-269.45969	8.85713	405.99667	139.70912	5.14789	421.44565	6.73730	1122.59680	-657.09100	-30.55524	594.56384	-342.57816	126.27969	592.25208	-320.55365	-151.87735	568.48914	593.87622	-1.71640	557.79498	614.20093	
4061	40.600	-180.32950	27.37379	-231.56316	217.77510	22.66740	-165.98505	-269.57550	8.70097	406.02347	139.04401	4.79458	421.49182	6.74205	1122.94958	-656.70074	-30.87581	594.70538	-342.38663	126.22883	592.48956	-320.64279	-152.15536	568.43604	594.31671	-2.21224	557.68573	614.37952	
